<svg id="Layer_1" data-name="Layer 1" xmlns="http://www.w3.org/2000/svg" viewBox="0 0 1670.45 373.22"><defs><style>.cls-1{fill:#ff144f;}</style></defs><title>final</title><path class="cls-1" d="M478.23,79h40.68v94.2h.72A55.93,55.93,0,0,1,530,161a64.56,64.56,0,0,1,13.38-9.1,69.86,69.86,0,0,1,15.34-5.71,67.2,67.2,0,0,1,15.88-2q21.76,0,38,7.67A75,75,0,0,1,639.53,173a91.44,91.44,0,0,1,16.06,31.22,132.2,132.2,0,0,1,5.35,38.18,135.16,135.16,0,0,1-4.82,36.05,93.78,93.78,0,0,1-14.63,30.86,73.11,73.11,0,0,1-24.8,21.41q-15,8-35.33,8a143.24,143.24,0,0,1-18.73-1.25,70.89,70.89,0,0,1-18-4.81,61.75,61.75,0,0,1-15.53-9.28,45.09,45.09,0,0,1-11.59-15h-.72v25.34H478.23Zm142,162.72a91.92,91.92,0,0,0-3.21-24.27,66,66,0,0,0-9.64-20.87,49.65,49.65,0,0,0-16.06-14.63,43.6,43.6,0,0,0-22.12-5.53q-25.69,0-38.72,17.84t-13,47.46a94.11,94.11,0,0,0,3.39,25.87,57.9,57.9,0,0,0,10.17,20.52,50.69,50.69,0,0,0,16.23,13.56,46.3,46.3,0,0,0,22,5q13.92,0,23.55-5.71a49.91,49.91,0,0,0,15.88-14.81,60.09,60.09,0,0,0,8.92-20.7A104.84,104.84,0,0,0,620.26,241.67Z"/><path class="cls-1" d="M779.77,338.73q-22.14,0-39.43-7.31a84.11,84.11,0,0,1-29.27-20.16,86.19,86.19,0,0,1-18.2-30.69,118.25,118.25,0,0,1-6.24-39.26,117,117,0,0,1,6.24-38.89,86.1,86.1,0,0,1,18.2-30.69,83.85,83.85,0,0,1,29.27-20.16q17.29-7.32,39.43-7.32t39.43,7.32a83.9,83.9,0,0,1,29.26,20.16,86.1,86.1,0,0,1,18.2,30.69,117,117,0,0,1,6.24,38.89,118.25,118.25,0,0,1-6.24,39.26,86.19,86.19,0,0,1-18.2,30.69,84.16,84.16,0,0,1-29.26,20.16Q801.89,338.73,779.77,338.73Zm0-32.11q13.56,0,23.55-5.71a49.6,49.6,0,0,0,16.41-15A65.09,65.09,0,0,0,829.19,265a93.73,93.73,0,0,0,0-47.28,62.86,62.86,0,0,0-9.46-20.87,50.27,50.27,0,0,0-16.41-14.81q-10-5.72-23.55-5.71t-23.55,5.71a50.21,50.21,0,0,0-16.42,14.81,63.06,63.06,0,0,0-9.46,20.87,93.73,93.73,0,0,0,0,47.28,65.31,65.31,0,0,0,9.46,20.88,49.54,49.54,0,0,0,16.42,15Q766.2,306.63,779.77,306.62Z"/><path class="cls-1" d="M991.37,338.73q-22.12,0-39.43-7.31a84.16,84.16,0,0,1-29.26-20.16,86.19,86.19,0,0,1-18.2-30.69,118.25,118.25,0,0,1-6.24-39.26,117,117,0,0,1,6.24-38.89,86.1,86.1,0,0,1,18.2-30.69,83.9,83.9,0,0,1,29.26-20.16q17.31-7.32,39.43-7.32t39.44,7.32a84.08,84.08,0,0,1,29.26,20.16,86.25,86.25,0,0,1,18.2,30.69,117,117,0,0,1,6.24,38.89,118.25,118.25,0,0,1-6.24,39.26,86.34,86.34,0,0,1-18.2,30.69,84.35,84.35,0,0,1-29.26,20.16Q1013.49,338.73,991.37,338.73Zm0-32.11q13.56,0,23.56-5.71a49.7,49.7,0,0,0,16.41-15A65.52,65.52,0,0,0,1040.8,265a93.73,93.73,0,0,0,0-47.28,63.26,63.26,0,0,0-9.46-20.87,50.37,50.37,0,0,0-16.41-14.81q-10-5.72-23.56-5.71t-23.55,5.71a50.27,50.27,0,0,0-16.41,14.81A62.86,62.86,0,0,0,942,217.76,93.73,93.73,0,0,0,942,265a65.09,65.09,0,0,0,9.46,20.88,49.6,49.6,0,0,0,16.41,15Q977.81,306.63,991.37,306.62Z"/><path class="cls-1" d="M1149.1,274.5q1.77,17.85,13.56,25t28.19,7.14a108,108,0,0,0,13-.9,56.2,56.2,0,0,0,13.74-3.39,25.85,25.85,0,0,0,10.53-7.31q4.09-4.81,3.75-12.67a18,18,0,0,0-5.71-12.85,40,40,0,0,0-13.74-8,135.69,135.69,0,0,0-19.09-5.17q-10.71-2.15-21.77-4.64a202.59,202.59,0,0,1-21.95-6.06,70.64,70.64,0,0,1-18.91-9.64,44.51,44.51,0,0,1-13.38-15.52q-5-9.45-5-23.38,0-15,7.32-25.15a56.12,56.12,0,0,1,18.55-16.42,81.05,81.05,0,0,1,25-8.74,147.23,147.23,0,0,1,26.23-2.5,120.23,120.23,0,0,1,27.3,3,74.42,74.42,0,0,1,23.55,9.82,57.68,57.68,0,0,1,17.49,17.66q7,10.89,8.74,26.23H1224q-2.85-14.62-13.38-19.63a55.55,55.55,0,0,0-24.08-5,87.21,87.21,0,0,0-10.17.71,47.18,47.18,0,0,0-11.07,2.68,23.26,23.26,0,0,0-8.74,5.71,13.62,13.62,0,0,0-3.57,9.81,15.49,15.49,0,0,0,5.18,12.13,40.42,40.42,0,0,0,13.56,7.67,131.9,131.9,0,0,0,19.09,5.18q10.71,2.15,22.12,4.64,11.05,2.49,21.77,6.06a70.58,70.58,0,0,1,19.09,9.64,46.92,46.92,0,0,1,13.56,15.34q5.17,9.29,5.18,22.84,0,16.43-7.5,27.84a59.13,59.13,0,0,1-19.45,18.55A88.39,88.39,0,0,1,1219,335.52a134.65,134.65,0,0,1-28.91,3.21,126.09,126.09,0,0,1-32.29-3.92,75.07,75.07,0,0,1-25.69-12,57.65,57.65,0,0,1-17.13-20q-6.26-12-6.6-28.37Z"/><path class="cls-1" d="M1285.06,149.25h30.68V93.93h40.69v55.32h36.75v30.33h-36.75v98.49a97.57,97.57,0,0,0,.53,11.06,19.12,19.12,0,0,0,2.5,7.85,11.9,11.9,0,0,0,5.89,4.82,28.94,28.94,0,0,0,10.7,1.6c2.86,0,5.71,0,8.57-.17a42.84,42.84,0,0,0,8.56-1.25v31.4q-6.78.71-13.2,1.43a121.05,121.05,0,0,1-13.21.71q-16.05,0-25.87-3t-15.34-8.92a30.8,30.8,0,0,1-7.5-14.81,111.54,111.54,0,0,1-2.32-20.34V179.58h-30.68Z"/><path class="cls-1" d="M1423.51,79h40.68v38.54h-40.68Zm0,70.3h40.68V333.74h-40.68Z"/><path class="cls-1" d="M1508.44,149.25H1547v27.12l.71.71A68.29,68.29,0,0,1,1572,153a64.73,64.73,0,0,1,33.19-8.74q30.31,0,47.81,15.7t17.49,47.1V333.74h-40.68v-116q-.72-21.76-9.28-31.58t-26.76-9.81a44.3,44.3,0,0,0-18.56,3.74,40.25,40.25,0,0,0-13.92,10.35,48.72,48.72,0,0,0-8.92,15.52,55.49,55.49,0,0,0-3.21,18.92V333.74h-40.68Z"/><path class="cls-1" d="M213.92,373.22H34.22a34.21,34.21,0,0,1-33-43.09l19.5-72.46a34.27,34.27,0,0,1,33-25.32H230.78l.26,0c2.33.09,55.77,1.45,81.46-44.28Q300,171.47,279,159.26C257.32,146.68,231.72,140,205,140H96A34.2,34.2,0,0,1,63,96.82L82.55,25.2a34.28,34.28,0,0,1,33-25.2H215.3a160.21,160.21,0,0,1,61,11.56c35.25,14.44,77.49,46.62,78.53,118,.36,24.53-8.81,45.88-14,56.95,9.54,17.24,14.43,36.85,14.43,58.4,0,69.78-42.56,101.81-78.27,116.39A166,166,0,0,1,213.92,373.22ZM230.3,257.05H53.72a9.51,9.51,0,0,0-9.17,7l-19.5,72.46a9.5,9.5,0,0,0,9.17,12h179.7a141.47,141.47,0,0,0,53.72-10.09c41.74-17.05,62.91-48.51,62.91-93.52a99.94,99.94,0,0,0-4.93-31.84C291.53,257.86,235.61,257.19,230.3,257.05ZM115.55,24.71a9.51,9.51,0,0,0-9.16,7L86.84,103.33a9.5,9.5,0,0,0,9.17,12H205c31.08,0,61,7.8,86.41,22.56a141.34,141.34,0,0,1,32.46,25.41c3.42-9.29,6.48-20.91,6.3-33.38-.68-46.47-21.94-78.6-63.19-95.49a135.61,135.61,0,0,0-51.67-9.72Z"/></svg>