<svg id="Layer_1" data-name="Layer 1" xmlns="http://www.w3.org/2000/svg" viewBox="0 0 1200.76 861.87"><defs><style>.cls-1{fill:#ff144f;}</style></defs><title>final</title><path class="cls-1" d="M1.51,600.55H42.43v94.77h.72a56.16,56.16,0,0,1,10.41-12.21A64.92,64.92,0,0,1,67,674a70.06,70.06,0,0,1,15.44-5.74,66.82,66.82,0,0,1,16-2q21.88,0,38.23,7.72a75.44,75.44,0,0,1,27.1,21.18,91.91,91.91,0,0,1,16.15,31.41A133,133,0,0,1,185.3,765a135.87,135.87,0,0,1-4.85,36.26,94.34,94.34,0,0,1-14.72,31,73.66,73.66,0,0,1-24.94,21.54q-15.09,8.07-35.54,8.07a145.06,145.06,0,0,1-18.85-1.25,71.7,71.7,0,0,1-18.12-4.85,62,62,0,0,1-15.62-9.33A45.27,45.27,0,0,1,41,831.36h-.72v25.49H1.51ZM144.37,764.24a92.09,92.09,0,0,0-3.23-24.41,66.13,66.13,0,0,0-9.69-21,50.23,50.23,0,0,0-16.15-14.72A43.89,43.89,0,0,0,93,698.55q-25.85,0-38.94,18T41,764.24a94.76,94.76,0,0,0,3.41,26A58.4,58.4,0,0,0,54.64,810.9,51,51,0,0,0,71,824.54a46.45,46.45,0,0,0,22.07,5q14,0,23.7-5.75a50,50,0,0,0,16-14.89,60.5,60.5,0,0,0,9-20.82A105.5,105.5,0,0,0,144.37,764.24Z"/><path class="cls-1" d="M304.82,861.87q-22.26,0-39.66-7.36a84.33,84.33,0,0,1-29.43-20.28,86.5,86.5,0,0,1-18.31-30.87,126.14,126.14,0,0,1,0-78.61,86.68,86.68,0,0,1,18.31-30.87,84.59,84.59,0,0,1,29.43-20.28q17.4-7.35,39.66-7.36t39.67,7.36a84.78,84.78,0,0,1,29.43,20.28,86.82,86.82,0,0,1,18.31,30.87,126.14,126.14,0,0,1,0,78.61,86.65,86.65,0,0,1-18.31,30.87,84.51,84.51,0,0,1-29.43,20.28Q327.08,861.88,304.82,861.87Zm0-32.3q13.65,0,23.7-5.75A50,50,0,0,0,345,808.75a66,66,0,0,0,9.51-21,94.23,94.23,0,0,0,0-47.56,63.73,63.73,0,0,0-9.51-21,50.88,50.88,0,0,0-16.51-14.9q-10.06-5.73-23.7-5.74t-23.69,5.74a50.78,50.78,0,0,0-16.51,14.9,63.33,63.33,0,0,0-9.51,21,94.23,94.23,0,0,0,0,47.56,65.61,65.61,0,0,0,9.51,21,49.86,49.86,0,0,0,16.51,15.07Q291.18,829.57,304.82,829.57Z"/><path class="cls-1" d="M517.68,861.87q-22.26,0-39.67-7.36a84.42,84.42,0,0,1-29.43-20.28,86.65,86.65,0,0,1-18.31-30.87,126.14,126.14,0,0,1,0-78.61,86.82,86.82,0,0,1,18.31-30.87A84.68,84.68,0,0,1,478,673.6q17.42-7.35,39.67-7.36t39.66,7.36a84.73,84.73,0,0,1,29.44,20.28,87,87,0,0,1,18.3,30.87,125.95,125.95,0,0,1,0,78.61,86.77,86.77,0,0,1-18.3,30.87,84.46,84.46,0,0,1-29.44,20.28Q539.92,861.88,517.68,861.87Zm0-32.3q13.64,0,23.69-5.75a49.86,49.86,0,0,0,16.51-15.07,65.61,65.61,0,0,0,9.51-21,94.23,94.23,0,0,0,0-47.56,63.33,63.33,0,0,0-9.51-21,50.78,50.78,0,0,0-16.51-14.9q-10.05-5.73-23.69-5.74T494,704.29a50.68,50.68,0,0,0-16.51,14.9,63.34,63.34,0,0,0-9.52,21,94.23,94.23,0,0,0,0,47.56,65.63,65.63,0,0,0,9.52,21A49.76,49.76,0,0,0,494,823.82Q504,829.57,517.68,829.57Z"/><path class="cls-1" d="M676.33,797.26q1.8,18,13.64,25.13t28.36,7.18a109.35,109.35,0,0,0,13.1-.9,57,57,0,0,0,13.82-3.41,25.93,25.93,0,0,0,10.59-7.36q4.13-4.85,3.77-12.74a18.08,18.08,0,0,0-5.74-12.92A39.74,39.74,0,0,0,740,784.16a134.74,134.74,0,0,0-19.2-5.21q-10.77-2.15-21.89-4.66a204.36,204.36,0,0,1-22.08-6.1,70.74,70.74,0,0,1-19-9.7,44.67,44.67,0,0,1-13.47-15.61q-5-9.51-5-23.51,0-15.07,7.36-25.31a56.43,56.43,0,0,1,18.66-16.51,81.41,81.41,0,0,1,25.13-8.79,147.09,147.09,0,0,1,26.38-2.52,121,121,0,0,1,27.46,3A74.65,74.65,0,0,1,768,679.17a57.89,57.89,0,0,1,17.59,17.76q7,11,8.8,26.39H751.71q-2.88-14.72-13.46-19.75a56,56,0,0,0-24.23-5,86.49,86.49,0,0,0-10.23.72A47.69,47.69,0,0,0,692.66,702a23.44,23.44,0,0,0-8.79,5.74,13.74,13.74,0,0,0-3.59,9.87,15.61,15.61,0,0,0,5.2,12.21,41.11,41.11,0,0,0,13.65,7.71,133.07,133.07,0,0,0,19.2,5.21q10.77,2.16,22.25,4.67,11.13,2.5,21.9,6.1a70.37,70.37,0,0,1,19.2,9.69,47.19,47.19,0,0,1,13.64,15.44q5.2,9.33,5.21,23,0,16.51-7.54,28a59.51,59.51,0,0,1-19.56,18.66,88.82,88.82,0,0,1-26.74,10.41,135,135,0,0,1-29.08,3.23,126.51,126.51,0,0,1-32.48-4,75.71,75.71,0,0,1-25.85-12,58,58,0,0,1-17.23-20.1q-6.28-12-6.64-28.54Z"/><path class="cls-1" d="M813.09,671.27H844V615.63h40.92v55.64h37v30.51h-37v99.07a98.54,98.54,0,0,0,.54,11.13,19.26,19.26,0,0,0,2.51,7.89,12,12,0,0,0,5.93,4.85,29.05,29.05,0,0,0,10.77,1.62q4.3,0,8.61-.18a42.82,42.82,0,0,0,8.62-1.26v31.59q-6.83.72-13.29,1.43a119.71,119.71,0,0,1-13.28.72q-16.15,0-26-3t-15.44-9a30.93,30.93,0,0,1-7.53-14.9A111.73,111.73,0,0,1,844,811.26V701.78H813.09Z"/><path class="cls-1" d="M952.36,600.55h40.92v38.77H952.36Zm0,70.72h40.92V856.85H952.36Z"/><path class="cls-1" d="M1037.79,671.27h38.77v27.28l.72.72A68.58,68.58,0,0,1,1101.69,675a65.07,65.07,0,0,1,33.38-8.8q30.51,0,48.1,15.8t17.59,47.38V856.85h-40.92V740.19q-.72-21.9-9.34-31.77t-26.92-9.87a44.46,44.46,0,0,0-18.66,3.77,40.27,40.27,0,0,0-14,10.41,49.08,49.08,0,0,0-9,15.61,55.89,55.89,0,0,0-3.23,19V856.85h-40.92Z"/><path class="cls-1" d="M639.91,531.67H383a48,48,0,0,1-46.33-60.44l27.88-103.58a48.06,48.06,0,0,1,46.32-35.5H663.63c4.06.16,81.42,2.13,118.3-64.29q-18-24.18-48.52-41.91c-31.14-18.07-67.89-27.61-106.26-27.61H471.35a48,48,0,0,1-46.28-60.6L453,35.33A48.08,48.08,0,0,1,499.29,0h142.6c31,0,60.24,5.54,86.89,16.46C778.91,37,839,82.76,840.45,184.29c.52,35.19-12.77,65.8-20.18,81.44C834,290.35,841,318.36,841,349.17,841,448.41,780.48,494,729.7,514.69,702.12,526,671.9,531.67,639.91,531.67Zm23-166.08-252,0a14.51,14.51,0,0,0-14,10.72L369,479.93a14.5,14.5,0,0,0,14,18.27H639.91c27.63,0,53.59-4.87,77.14-14.49,60.05-24.51,90.5-69.78,90.5-134.54a143.41,143.41,0,0,0-7.65-47.49C750.33,368.4,666.86,365.81,662.92,365.59ZM499.29,33.47a14.53,14.53,0,0,0-14,10.68L457.36,146.54a14.5,14.5,0,0,0,14,18.32h155.8C671.42,164.86,714,176,750.2,197a200.22,200.22,0,0,1,47.2,37.26c5.14-13.58,9.86-30.86,9.59-49.47-1-66.85-31.55-113-90.89-137.35-22.61-9.26-47.58-14-74.21-14Z"/></svg>